<svg xmlns="http://www.w3.org/2000/svg" xmlns:xlink="http://www.w3.org/1999/xlink" version="1.1" data-diagram-type="CLASS" style="width:1005px;height:862px;background:#FFFFFF;" width="1005px" height="862px" viewBox="0 0 1005 862" zoomAndPan="magnify" preserveAspectRatio="none" contentStyleType="text/css"><?plantuml 1.2026.7?><defs/><g font-family="sans-serif" lengthAdjust="spacing"><g class="title" data-source-line="1"><text x="242.889" y="23.535" fill="#000" font-size="14" textLength="513.153" font-weight="700">TaskForge emergency-response class diagram - Member 3 integration</text></g><!--class EmergencyTask--><g class="entity" data-qualified-name="EmergencyTask" id="ent0001" data-source-line="5"><rect x="200.55" y="194.088" width="278.191" height="172.039" fill="#F1F1F1" style="stroke:#181818;stroke-width:0.5;" rx="2.5" ry="2.5"/><ellipse cx="282.499" cy="214.399" rx="11" ry="11" fill="#A9DCDF" style="stroke:#181818;stroke-width:1;"/><path d="M282.363,209.747 L281.209,214.819 L283.525,214.819 Z M280.868,207.506 L283.865,207.506 L287.21,219.899 L284.761,219.899 L283.998,216.836 L280.719,216.836 L279.972,219.899 L277.523,219.899 Z " fill="#000"/><text x="315.674" y="210.69" fill="#000" font-size="12" textLength="80.443" font-style="italic">«Component»</text><text x="302.999" y="226.756" fill="#000" font-size="14" textLength="105.793" font-style="italic">EmergencyTask</text><line x1="201.55" y1="234.709" x2="477.741" y2="234.709" style="stroke:#181818;stroke-width:0.5;"/><text x="206.55" y="252.245" fill="#000" font-size="14" textLength="137.785">#description : string</text><line x1="201.55" y1="259.198" x2="477.741" y2="259.198" style="stroke:#181818;stroke-width:0.5;"/><text x="206.55" y="276.733" fill="#000" font-size="14" textLength="119.465">+sendOut() : void</text><text x="206.55" y="293.221" fill="#000" font-size="14" textLength="115.869">+add(task) : void</text><text x="206.55" y="309.709" fill="#000" font-size="14" textLength="140.759">+remove(task) : void</text><text x="206.55" y="326.198" fill="#000" font-size="14" textLength="172.607">+getDescription() : string</text><text x="206.55" y="342.686" fill="#000" font-size="14" textLength="213.828">+createIterator() : TaskIterator*</text><text x="206.55" y="359.174" fill="#000" font-size="14" textLength="266.191">+createReverseIterator() : TaskIterator*</text></g><!--class dispatchAmbulance--><g class="entity" data-qualified-name="dispatchAmbulance" id="ent0002" data-source-line="15"><rect x="7" y="450.858" width="165.301" height="73.109" fill="#F1F1F1" style="stroke:#181818;stroke-width:0.5;" rx="2.5" ry="2.5"/><ellipse cx="22" cy="471.169" rx="11" ry="11" fill="#ADD1B2" style="stroke:#181818;stroke-width:1;"/><path d="M24.473,477.312 Q23.892,477.611 23.253,477.76 Q22.614,477.91 21.908,477.91 Q19.401,477.91 18.082,476.258 Q16.762,474.606 16.762,471.485 Q16.762,468.355 18.082,466.703 Q19.401,465.052 21.908,465.052 Q22.614,465.052 23.261,465.201 Q23.909,465.35 24.473,465.649 L24.473,468.372 Q23.842,467.791 23.249,467.521 Q22.655,467.251 22.024,467.251 Q20.68,467.251 19.995,468.318 Q19.31,469.385 19.31,471.485 Q19.31,473.577 19.995,474.643 Q20.68,475.71 22.024,475.71 Q22.655,475.71 23.249,475.44 Q23.842,475.17 24.473,474.589 Z " fill="#000"/><text x="84.302" y="467.46" fill="#000" font-size="12" textLength="36.697" font-style="italic">«Leaf»</text><text x="36" y="483.526" fill="#000" font-size="14" textLength="133.301">dispatchAmbulance</text><line x1="8" y1="491.479" x2="171.301" y2="491.479" style="stroke:#181818;stroke-width:0.5;"/><line x1="8" y1="499.479" x2="171.301" y2="499.479" style="stroke:#181818;stroke-width:0.5;"/><text x="13" y="517.015" fill="#000" font-size="14" textLength="119.465">+sendOut() : void</text></g><!--class IncidentGroup--><g class="entity" data-qualified-name="IncidentGroup" id="ent0003" data-source-line="19"><rect x="207.18" y="426.128" width="264.95" height="122.574" fill="#F1F1F1" style="stroke:#181818;stroke-width:0.5;" rx="2.5" ry="2.5"/><ellipse cx="287.195" cy="446.439" rx="11" ry="11" fill="#ADD1B2" style="stroke:#181818;stroke-width:1;"/><path d="M289.668,452.582 Q289.087,452.881 288.448,453.03 Q287.808,453.18 287.103,453.18 Q284.596,453.18 283.276,451.528 Q281.956,449.876 281.956,446.755 Q281.956,443.625 283.276,441.973 Q284.596,440.322 287.103,440.322 Q287.808,440.322 288.456,440.471 Q289.103,440.62 289.668,440.919 L289.668,443.642 Q289.037,443.061 288.443,442.791 Q287.85,442.521 287.219,442.521 Q285.874,442.521 285.19,443.588 Q284.505,444.655 284.505,446.755 Q284.505,448.847 285.19,449.913 Q285.874,450.98 287.219,450.98 Q287.85,450.98 288.443,450.71 Q289.037,450.44 289.668,449.859 Z " fill="#000"/><text x="318.338" y="442.73" fill="#000" font-size="12" textLength="75.135" font-style="italic">«Composite»</text><text x="307.695" y="458.796" fill="#000" font-size="14" textLength="96.421">IncidentGroup</text><line x1="208.18" y1="466.749" x2="471.13" y2="466.749" style="stroke:#181818;stroke-width:0.5;"/><text x="213.18" y="484.285" fill="#000" font-size="14" textLength="252.95">-children : vector&lt;EmergencyTask*></text><line x1="208.18" y1="491.238" x2="471.13" y2="491.238" style="stroke:#181818;stroke-width:0.5;"/><text x="213.18" y="508.773" fill="#000" font-size="14" textLength="115.869">+add(task) : void</text><text x="213.18" y="525.261" fill="#000" font-size="14" textLength="140.759">+remove(task) : void</text><text x="213.18" y="541.749" fill="#000" font-size="14" textLength="119.465">+sendOut() : void</text></g><!--class EmergencyTaskDecorator--><g class="entity" data-qualified-name="EmergencyTaskDecorator" id="ent0004" data-source-line="26"><rect x="360.12" y="44.488" width="237.066" height="89.598" fill="#F1F1F1" style="stroke:#181818;stroke-width:0.5;" rx="2.5" ry="2.5"/><ellipse cx="389.607" cy="64.799" rx="11" ry="11" fill="#A9DCDF" style="stroke:#181818;stroke-width:1;"/><path d="M389.47,60.147 L388.316,65.219 L390.632,65.219 Z M387.976,57.906 L390.972,57.906 L394.318,70.299 L391.869,70.299 L391.105,67.236 L387.826,67.236 L387.079,70.299 L384.63,70.299 Z " fill="#000"/><text x="458.227" y="61.09" fill="#000" font-size="12" textLength="70.072" font-style="italic">«Decorator»</text><text x="406.826" y="77.156" fill="#000" font-size="14" textLength="172.874" font-style="italic">EmergencyTaskDecorator</text><line x1="361.12" y1="85.109" x2="596.186" y2="85.109" style="stroke:#181818;stroke-width:0.5;"/><text x="366.12" y="102.645" fill="#000" font-size="14" textLength="225.066">#wrappedTask : EmergencyTask*</text><line x1="361.12" y1="109.598" x2="596.186" y2="109.598" style="stroke:#181818;stroke-width:0.5;"/><text x="366.12" y="127.133" fill="#000" font-size="14" textLength="119.465">+sendOut() : void</text></g><!--class PriorityDispatchDecorator--><g class="entity" data-qualified-name="PriorityDispatchDecorator" id="ent0005" data-source-line="31"><rect x="514.24" y="235.308" width="206.829" height="89.598" fill="#F1F1F1" style="stroke:#181818;stroke-width:0.5;" rx="2.5" ry="2.5"/><ellipse cx="529.24" cy="255.619" rx="11" ry="11" fill="#ADD1B2" style="stroke:#181818;stroke-width:1;"/><path d="M531.713,261.762 Q531.132,262.061 530.493,262.21 Q529.854,262.36 529.148,262.36 Q526.641,262.36 525.322,260.708 Q524.002,259.056 524.002,255.935 Q524.002,252.805 525.322,251.153 Q526.641,249.502 529.148,249.502 Q529.854,249.502 530.501,249.651 Q531.149,249.8 531.713,250.099 L531.713,252.822 Q531.082,252.241 530.489,251.971 Q529.895,251.701 529.264,251.701 Q527.92,251.701 527.235,252.768 Q526.55,253.835 526.55,255.935 Q526.55,258.027 527.235,259.093 Q527.92,260.16 529.264,260.16 Q529.895,260.16 530.489,259.89 Q531.082,259.62 531.713,259.039 Z " fill="#000"/><text x="569.6" y="251.91" fill="#000" font-size="12" textLength="122.109" font-style="italic">«ConcreteDecorator»</text><text x="543.24" y="267.976" fill="#000" font-size="14" textLength="174.829">PriorityDispatchDecorator</text><line x1="515.24" y1="275.929" x2="720.069" y2="275.929" style="stroke:#181818;stroke-width:0.5;"/><text x="520.24" y="293.465" fill="#000" font-size="14" textLength="146.323">-priorityLabel : string</text><line x1="515.24" y1="300.418" x2="720.069" y2="300.418" style="stroke:#181818;stroke-width:0.5;"/><text x="520.24" y="317.953" fill="#000" font-size="14" textLength="119.465">+sendOut() : void</text></g><!--class AuditDispatchDecorator--><g class="entity" data-qualified-name="AuditDispatchDecorator" id="ent0006" data-source-line="36"><rect x="756.36" y="235.308" width="234.571" height="89.598" fill="#F1F1F1" style="stroke:#181818;stroke-width:0.5;" rx="2.5" ry="2.5"/><ellipse cx="789.243" cy="255.619" rx="11" ry="11" fill="#ADD1B2" style="stroke:#181818;stroke-width:1;"/><path d="M791.716,261.762 Q791.135,262.061 790.496,262.21 Q789.856,262.36 789.151,262.36 Q786.644,262.36 785.324,260.708 Q784.004,259.056 784.004,255.935 Q784.004,252.805 785.324,251.153 Q786.644,249.502 789.151,249.502 Q789.856,249.502 790.504,249.651 Q791.151,249.8 791.716,250.099 L791.716,252.822 Q791.085,252.241 790.491,251.971 Q789.898,251.701 789.267,251.701 Q787.922,251.701 787.238,252.768 Q786.553,253.835 786.553,255.935 Q786.553,258.027 787.238,259.093 Q787.922,260.16 789.267,260.16 Q789.898,260.16 790.491,259.89 Q791.085,259.62 791.716,259.039 Z " fill="#000"/><text x="827.578" y="251.91" fill="#000" font-size="12" textLength="122.109" font-style="italic">«ConcreteDecorator»</text><text x="807.217" y="267.976" fill="#000" font-size="14" textLength="162.832">AuditDispatchDecorator</text><line x1="757.36" y1="275.929" x2="989.931" y2="275.929" style="stroke:#181818;stroke-width:0.5;"/><text x="762.36" y="293.465" fill="#000" font-size="14" textLength="222.571">-auditLog : EmergencyAuditLog*</text><line x1="757.36" y1="300.418" x2="989.931" y2="300.418" style="stroke:#181818;stroke-width:0.5;"/><text x="762.36" y="317.953" fill="#000" font-size="14" textLength="119.465">+sendOut() : void</text></g><!--class EmergencyAuditLog--><g class="entity" data-qualified-name="EmergencyAuditLog" id="ent0007" data-source-line="41"><rect x="781.93" y="438.688" width="183.432" height="97.465" fill="#F1F1F1" style="stroke:#181818;stroke-width:0.5;" rx="2.5" ry="2.5"/><ellipse cx="804.268" cy="454.688" rx="11" ry="11" fill="#ADD1B2" style="stroke:#181818;stroke-width:1;"/><path d="M806.741,460.831 Q806.16,461.13 805.52,461.28 Q804.881,461.429 804.176,461.429 Q801.669,461.429 800.349,459.777 Q799.029,458.125 799.029,455.004 Q799.029,451.875 800.349,450.223 Q801.669,448.571 804.176,448.571 Q804.881,448.571 805.529,448.721 Q806.176,448.87 806.741,449.169 L806.741,451.891 Q806.11,451.31 805.516,451.041 Q804.923,450.771 804.292,450.771 Q802.947,450.771 802.262,451.837 Q801.578,452.904 801.578,455.004 Q801.578,457.096 802.262,458.163 Q802.947,459.229 804.292,459.229 Q804.923,459.229 805.516,458.96 Q806.11,458.69 806.741,458.109 Z " fill="#000"/><text x="819.898" y="459.979" fill="#000" font-size="14" textLength="135.126">EmergencyAuditLog</text><line x1="782.93" y1="470.688" x2="964.362" y2="470.688" style="stroke:#181818;stroke-width:0.5;"/><text x="787.93" y="488.223" fill="#000" font-size="14" textLength="171.432">-entries : vector&lt;string></text><line x1="782.93" y1="495.177" x2="964.362" y2="495.177" style="stroke:#181818;stroke-width:0.5;"/><text x="787.93" y="512.712" fill="#000" font-size="14" textLength="140.834">+record(entry) : void</text><text x="787.93" y="529.2" fill="#000" font-size="14" textLength="158.539">+writeTo(output) : void</text></g><!--class TaskIterator--><g class="entity" data-qualified-name="TaskIterator" id="ent0008" data-source-line="47"><rect x="221.03" y="608.698" width="237.244" height="122.574" fill="#F1F1F1" style="stroke:#181818;stroke-width:0.5;" rx="2.5" ry="2.5"/><ellipse cx="294.404" cy="629.009" rx="11" ry="11" fill="#B4A7E5" style="stroke:#181818;stroke-width:1;"/><path d="M290.831,625.274 L290.831,623.116 L298.211,623.116 L298.211,625.274 L295.745,625.274 L295.745,633.351 L298.211,633.351 L298.211,635.509 L290.831,635.509 L290.831,633.351 L293.297,633.351 L293.297,625.274 Z " fill="#000"/><text x="328.146" y="625.3" fill="#000" font-size="12" textLength="55.512" font-style="italic">«Iterator»</text><text x="314.904" y="641.366" fill="#000" font-size="14" textLength="81.997" font-style="italic">TaskIterator</text><line x1="222.03" y1="649.319" x2="457.274" y2="649.319" style="stroke:#181818;stroke-width:0.5;"/><line x1="222.03" y1="657.319" x2="457.274" y2="657.319" style="stroke:#181818;stroke-width:0.5;"/><text x="227.03" y="674.855" fill="#000" font-size="14" textLength="89.523">+first() : void</text><text x="227.03" y="691.343" fill="#000" font-size="14" textLength="92.538">+next() : void</text><text x="227.03" y="707.831" fill="#000" font-size="14" textLength="110.339">+isDone() : bool</text><text x="227.03" y="724.319" fill="#000" font-size="14" textLength="225.244">+currentItem() : EmergencyTask*</text></g><!--class DepthFirstIterator--><g class="entity" data-qualified-name="DepthFirstIterator" id="ent0009" data-source-line="54"><rect x="174.27" y="791.278" width="152.771" height="56.621" fill="#F1F1F1" style="stroke:#181818;stroke-width:0.5;" rx="2.5" ry="2.5"/><ellipse cx="189.27" cy="811.589" rx="11" ry="11" fill="#ADD1B2" style="stroke:#181818;stroke-width:1;"/><path d="M191.743,817.732 Q191.162,818.031 190.523,818.18 Q189.884,818.33 189.178,818.33 Q186.671,818.33 185.352,816.678 Q184.032,815.026 184.032,811.905 Q184.032,808.775 185.352,807.123 Q186.671,805.472 189.178,805.472 Q189.884,805.472 190.531,805.621 Q191.179,805.77 191.743,806.069 L191.743,808.792 Q191.112,808.211 190.519,807.941 Q189.925,807.671 189.294,807.671 Q187.95,807.671 187.265,808.738 Q186.58,809.805 186.58,811.905 Q186.58,813.997 187.265,815.063 Q187.95,816.13 189.294,816.13 Q189.925,816.13 190.519,815.86 Q191.112,815.59 191.743,815.009 Z " fill="#000"/><text x="209.881" y="807.88" fill="#000" font-size="12" textLength="107.549" font-style="italic">«ConcreteIterator»</text><text x="203.27" y="823.946" fill="#000" font-size="14" textLength="120.771">DepthFirstIterator</text><line x1="175.27" y1="831.899" x2="326.041" y2="831.899" style="stroke:#181818;stroke-width:0.5;"/><line x1="175.27" y1="839.899" x2="326.041" y2="839.899" style="stroke:#181818;stroke-width:0.5;"/></g><!--class ReverseIterator--><g class="entity" data-qualified-name="ReverseIterator" id="ent0010" data-source-line="55"><rect x="361.88" y="791.278" width="135.549" height="56.621" fill="#F1F1F1" style="stroke:#181818;stroke-width:0.5;" rx="2.5" ry="2.5"/><ellipse cx="376.88" cy="811.589" rx="11" ry="11" fill="#ADD1B2" style="stroke:#181818;stroke-width:1;"/><path d="M379.353,817.732 Q378.772,818.031 378.133,818.18 Q377.494,818.33 376.788,818.33 Q374.281,818.33 372.962,816.678 Q371.642,815.026 371.642,811.905 Q371.642,808.775 372.962,807.123 Q374.281,805.472 376.788,805.472 Q377.494,805.472 378.141,805.621 Q378.789,805.77 379.353,806.069 L379.353,808.792 Q378.722,808.211 378.129,807.941 Q377.535,807.671 376.904,807.671 Q375.56,807.671 374.875,808.738 Q374.19,809.805 374.19,811.905 Q374.19,813.997 374.875,815.063 Q375.56,816.13 376.904,816.13 Q377.535,816.13 378.129,815.86 Q378.722,815.59 379.353,815.009 Z " fill="#000"/><text x="388.88" y="807.88" fill="#000" font-size="12" textLength="107.549" font-style="italic">«ConcreteIterator»</text><text x="391.426" y="823.946" fill="#000" font-size="14" textLength="102.457">ReverseIterator</text><line x1="362.88" y1="831.899" x2="496.429" y2="831.899" style="stroke:#181818;stroke-width:0.5;"/><line x1="362.88" y1="839.899" x2="496.429" y2="839.899" style="stroke:#181818;stroke-width:0.5;"/></g><g class="entity" data-qualified-name="GMN22" id="ent0023" data-source-line="70"><path d="M631.79,68.978 L631.79,84.898 L597.4,88.898 L631.79,92.898 L631.79,109.599 A0,0 0 0 0 631.79,109.599 L911.501,109.599 A0,0 0 0 0 911.501,109.599 L911.501,78.978 L901.501,68.978 L631.79,68.978 A0,0 0 0 0 631.79,68.978" style="stroke:#181818;stroke-width:0.5;" fill="#FEFFDD"/><path d="M901.501,68.978 L901.501,78.978 L911.501,78.978 L901.501,68.978" style="stroke:#181818;stroke-width:0.5;" fill="#FEFFDD"/><text x="637.79" y="86.547" fill="#000" font-size="13" textLength="253.57">Decorators preserve the EmergencyTask</text><text x="637.79" y="101.857" fill="#000" font-size="13" textLength="258.711">interface and may be stacked at runtime.</text></g><!--reverse link EmergencyTask to dispatchAmbulance--><g class="link" data-entity-1="ent0001" data-entity-2="ent0002" id="lnk11" data-source-line="57" data-link-type="extension"><path d="M182.4,279.898 C124.99,279.898 89.65,279.898 89.65,279.898 C89.65,279.898 89.65,391.218 89.65,450.798" style="stroke:#181818;stroke-width:1;" fill="none" id="EmergencyTask-backto-dispatchAmbulance" codeLine="57"/><polygon points="200.4,279.898,182.4,273.898,182.4,285.898,200.4,279.898" fill="none" style="stroke:#181818;stroke-width:1;stroke-linejoin:miter;stroke-miterlimit:10;"/></g><!--reverse link EmergencyTask to IncidentGroup--><g class="link" data-entity-1="ent0001" data-entity-2="ent0003" id="lnk12" data-source-line="58" data-link-type="extension"><path d="M295.49,384.528 C295.49,404.408 295.49,407.168 295.49,425.758" style="stroke:#181818;stroke-width:1;" fill="none" id="EmergencyTask-backto-IncidentGroup" codeLine="58"/><polygon points="295.49,366.528,289.49,384.528,301.49,384.528,295.49,366.528" fill="none" style="stroke:#181818;stroke-width:1;stroke-linejoin:miter;stroke-miterlimit:10;"/></g><!--reverse link IncidentGroup to EmergencyTask--><g class="link" data-entity-1="ent0003" data-entity-2="ent0001" id="lnk16" data-source-line="62" data-link-type="composition"><path d="M383.81,413.778 C383.81,395.158 383.81,386.358 383.81,366.448" style="stroke:#181818;stroke-width:1;" fill="none" id="IncidentGroup-backto-EmergencyTask" codeLine="62"/><polygon points="383.81,425.778,387.81,419.778,383.81,413.778,379.81,419.778,383.81,425.778" fill="#181818" style="stroke:#181818;stroke-width:1;stroke-linejoin:miter;stroke-miterlimit:10;"/><text x="384.81" y="392.677" fill="#000" font-size="13" textLength="32.697">owns</text><text x="380.466" y="415.371" fill="#000" font-size="13">1</text><text x="364.586" y="386.801" fill="#000" font-size="13" textLength="22.712">0..*</text></g><!--reverse link EmergencyTask to EmergencyTaskDecorator--><g class="link" data-entity-1="ent0001" data-entity-2="ent0004" id="lnk13" data-source-line="59" data-link-type="extension"><path d="M439.2,175.628 C439.2,155.218 439.2,152.258 439.2,134.528" style="stroke:#181818;stroke-width:1;" fill="none" id="EmergencyTask-backto-EmergencyTaskDecorator" codeLine="59"/><polygon points="439.2,193.628,445.2,175.628,433.2,175.628,439.2,193.628" fill="none" style="stroke:#181818;stroke-width:1;stroke-linejoin:miter;stroke-miterlimit:10;"/></g><!--reverse link EmergencyTaskDecorator to EmergencyTask--><g class="link" data-entity-1="ent0004" data-entity-2="ent0001" id="lnk17" data-source-line="63" data-link-type="composition"><path d="M399.66,146.508 C399.66,164.258 399.66,173.238 399.66,193.668" style="stroke:#181818;stroke-width:1;" fill="none" id="EmergencyTaskDecorator-backto-EmergencyTask" codeLine="63"/><polygon points="399.66,134.508,395.66,140.508,399.66,146.508,403.66,140.508,399.66,134.508" fill="#181818" style="stroke:#181818;stroke-width:1;stroke-linejoin:miter;stroke-miterlimit:10;"/><text x="400.66" y="160.657" fill="#000" font-size="13" textLength="76.838">wraps/owns</text><text x="380.005" y="154.512" fill="#000" font-size="13">1</text><text x="396.308" y="183.47" fill="#000" font-size="13">1</text></g><!--reverse link EmergencyTaskDecorator to PriorityDispatchDecorator--><g class="link" data-entity-1="ent0004" data-entity-2="ent0005" id="lnk14" data-source-line="60" data-link-type="extension"><path d="M555.71,152.508 C555.71,182.818 555.71,204.578 555.71,234.878" style="stroke:#181818;stroke-width:1;" fill="none" id="EmergencyTaskDecorator-backto-PriorityDispatchDecorator" codeLine="60"/><polygon points="555.71,134.508,549.71,152.508,561.71,152.508,555.71,134.508" fill="none" style="stroke:#181818;stroke-width:1;stroke-linejoin:miter;stroke-miterlimit:10;"/></g><!--reverse link EmergencyTaskDecorator to AuditDispatchDecorator--><g class="link" data-entity-1="ent0004" data-entity-2="ent0006" id="lnk15" data-source-line="61" data-link-type="extension"><path d="M615.45,121.898 C718.73,121.898 833.94,121.898 833.94,121.898 C833.94,121.898 833.94,188.418 833.94,235.198" style="stroke:#181818;stroke-width:1;" fill="none" id="EmergencyTaskDecorator-backto-AuditDispatchDecorator" codeLine="61"/><polygon points="597.45,121.898,615.45,127.898,615.45,115.898,597.45,121.898" fill="none" style="stroke:#181818;stroke-width:1;stroke-linejoin:miter;stroke-miterlimit:10;"/></g><!--link AuditDispatchDecorator to EmergencyAuditLog--><g class="link" data-entity-1="ent0006" data-entity-2="ent0007" id="lnk18" data-source-line="64" data-link-type="dependency"><path d="M873.65,325.348 C873.65,358.708 873.65,399.048 873.65,433.288" style="stroke:#181818;stroke-width:1;" fill="none" id="AuditDispatchDecorator-to-EmergencyAuditLog" codeLine="64"/><polygon points="873.65,438.288,877.65,429.288,873.65,433.288,869.65,429.288,873.65,438.288" fill="#181818" style="stroke:#181818;stroke-width:1;stroke-linejoin:miter;stroke-miterlimit:10;"/><text x="809.65" y="378.387" fill="#000" font-size="13" textLength="63.273">records in</text><text x="850.154" y="345.355" fill="#000" font-size="13" textLength="22.712">0..*</text><text x="865.104" y="427.915" fill="#000" font-size="13">1</text></g><!--reverse link TaskIterator to DepthFirstIterator--><g class="link" data-entity-1="ent0008" data-entity-2="ent0009" id="lnk19" data-source-line="65" data-link-type="extension"><path d="M274.03,749.698 C274.03,770.308 274.03,774.278 274.03,791.098" style="stroke:#181818;stroke-width:1;stroke-dasharray:7,7;" fill="none" id="TaskIterator-backto-DepthFirstIterator" codeLine="65"/><polygon points="274.03,731.698,268.03,749.698,280.03,749.698,274.03,731.698" fill="none" style="stroke:#181818;stroke-width:1;stroke-linejoin:miter;stroke-miterlimit:10;"/></g><!--reverse link TaskIterator to ReverseIterator--><g class="link" data-entity-1="ent0008" data-entity-2="ent0010" id="lnk20" data-source-line="66" data-link-type="extension"><path d="M410.07,749.698 C410.07,770.308 410.07,774.278 410.07,791.098" style="stroke:#181818;stroke-width:1;stroke-dasharray:7,7;" fill="none" id="TaskIterator-backto-ReverseIterator" codeLine="66"/><polygon points="410.07,731.698,404.07,749.698,416.07,749.698,410.07,731.698" fill="none" style="stroke:#181818;stroke-width:1;stroke-linejoin:miter;stroke-miterlimit:10;"/></g><!--link IncidentGroup to TaskIterator--><g class="link" data-entity-1="ent0003" data-entity-2="ent0008" id="lnk21" data-source-line="67" data-link-type="dependency"><path d="M339.65,548.968 C339.65,568.128 339.65,584.238 339.65,603.388" style="stroke:#181818;stroke-width:1;stroke-dasharray:7,7;" fill="none" id="IncidentGroup-to-TaskIterator" codeLine="67"/><polygon points="339.65,608.388,343.65,599.388,339.65,603.388,335.65,599.388,339.65,608.388" fill="#181818" style="stroke:#181818;stroke-width:1;stroke-linejoin:miter;stroke-miterlimit:10;"/><text x="293.65" y="575.247" fill="#000" font-size="13" textLength="45.132">creates</text></g><?plantuml-src bLNRRjim37tNLn3PIvR1Nekz1K60e5c70XqsRFq1MM8IeRPaI7IwRDs_ZtRi-18dGvyYC8SwFEIXJ8PIX2SPdk-Tto9WXlnZrI7o679d0u9APGYWZTnwcK44Np5BqCCdC9QGOsIS5U7Ps5oMW0g-8l8cAGWVbBC_pM-4cmuaDHRfa2CuJpidX4m2UQceflhSr52M1Ol5dSku4hIqNC8V0V1EOr3Uv2Knp85pZTro_4D0gxyLD7tFqRqpken9hQV4ztHZ7ZEtnxFm5cdTtbpTqjwjF4gMGyY2dQ_-BCjh0hCMymFtwCCrw5yXcgQ6N9BQhRAaIALLo6eVKMvgeUU2JfaFLXdDBVdYNP4tFGg6i4wDrCwascFPe3qgfbtqsZfRlh4vOwLScziQbQlaSd6dSpF05o_p77Krtta_RtPTztTld3TqMDUTwzBSESiJ81pIHNcTz2WJJAyxvaIqAhIXDx78CkFHRRkALdNiFwhEyCSRURxUO6X7U2nyUHmJq-jf2Jbqv_J2Gl79JLr1UK5Tgd9T_KOgxBcH5JN7ndKRuqD_YIp-wWTCMFD6Lg74kRGoV-7PRiINPLLyCDMJrZNcjBilAJebD4rjIwdHWsKQXuh1Y_4QHUUhDGRgRT4OODpIufBJovIB3hsQDMutqL_poUq4PWoUtCJnR39u9-VWNcouH79AlJtFAxSnVAooBxY-9eoYPV-2LMlveny3VnH4trwlSJmoyn7GODG3xN6yxFjs3iVdDWXX7I5uizqHkCsbcG6SpW5o_hgXtoFG3li9Z6iNHLeDcJn0WlncIFMC6YI1BooP36F1-mmbzpy0?></g></svg>